<svg aria-hidden="true" style="position: absolute; width: 0; height: 0; overflow: hidden;" version="1.1" xmlns="http://www.w3.org/2000/svg" xmlns:xlink="http://www.w3.org/1999/xlink">
<defs>
<symbol id="icon-calendar" viewBox="0 0 32 32">
<path stroke-linejoin="round" stroke-linecap="round" stroke-miterlimit="4" stroke-width="2.88" d="M25.333 5.333h-18.666c-1.472 0-2.667 1.195-2.667 2.667v18.667c0 1.472 1.194 2.666 2.667 2.666h18.666c1.472 0 2.667-1.194 2.667-2.666v-18.667c0-1.472-1.194-2.667-2.667-2.667M21.333 2.667v5.333M10.667 2.667v5.333M4 13.333h24"></path>
</symbol>
<symbol id="icon-check" viewBox="0 0 32 32">
<path fill="none" stroke="#08aa83" style="stroke: var(--color1, #08aa83)" stroke-linejoin="round" stroke-linecap="round" stroke-miterlimit="4" stroke-width="2.1818" d="M26.668 9.334l-14.668 14.666-6.666-6.666"></path>
</symbol>
<symbol id="icon-chevron-down" viewBox="0 0 32 32">
<path stroke-linejoin="round" stroke-linecap="round" stroke-miterlimit="4" stroke-width="3.5556" d="M8 12l8 8 8-8"></path>
</symbol>
<symbol id="icon-cross-red" viewBox="0 0 32 32">
<path fill="none" stroke="#ef2447" style="stroke: var(--color2, #ef2447)" stroke-linejoin="round" stroke-linecap="round" stroke-miterlimit="4" stroke-width="2.9091" d="M25.332 6.666l-18.666 18.668M6.666 6.666l18.666 18.668"></path>
</symbol>
<symbol id="icon-cross-black" viewBox="0 0 32 32">
<path  stroke-linejoin="round" stroke-linecap="round" stroke-miterlimit="4" stroke-width="3.5556" d="M25.333 6.667l-18.667 18.667M6.667 6.667l18.667 18.667"></path>
</symbol>
<symbol id="icon-cross-white" viewBox="0 0 32 32">
<path fill="none" stroke="#fff" style="stroke: var(--color1, #fff)" stroke-linejoin="round" stroke-linecap="round" stroke-miterlimit="4" stroke-width="3" d="M24 8l-16 16M8 8l16 16"></path>
</symbol>
<symbol id="icon-duo" viewBox="0 0 32 32">
<path fill="#f6b83d" style="fill: var(--color3, #f6b83d)" d="M11.693 10.327c-0.503-0.202-1.086-0.319-1.696-0.319-2.577 0-4.665 2.089-4.665 4.665s2.089 4.665 4.665 4.665c2.577 0 4.665-2.089 4.665-4.665 0-0.251-0.020-0.498-0.058-0.738l0.003 0.027c-0.005-0.030-0.007-0.064-0.007-0.098 0-0.37 0.3-0.669 0.669-0.669 0.055 0 0.109 0.007 0.16 0.019l-0.005-0.001c0.261 0.066 0.458 0.278 0.499 0.543l0.001 0.004c0.044 0.274 0.070 0.59 0.070 0.912 0 3.312-2.685 5.997-5.997 5.997s-5.997-2.685-5.997-5.997c0-3.312 2.685-5.997 5.997-5.997 0.785 0 1.534 0.151 2.221 0.425l-0.040-0.014c0.251 0.1 0.425 0.34 0.425 0.621 0 0.368-0.299 0.667-0.667 0.667-0.087 0-0.17-0.017-0.246-0.047l0.005 0.002z"></path>
<path fill="#f6b83d" style="fill: var(--color3, #f6b83d)" d="M9.331 26v-5.331c0-0.368 0.298-0.667 0.667-0.667s0.667 0.298 0.667 0.667v0 5.331c0 0.368-0.298 0.667-0.667 0.667s-0.667-0.298-0.667-0.667v0z"></path>
<path fill="#f6b83d" style="fill: var(--color3, #f6b83d)" d="M7.332 22.668c0-0.368 0.298-0.667 0.667-0.667v0h3.999c0.368 0 0.667 0.298 0.667 0.667s-0.298 0.667-0.667 0.667v0h-4c-0.368-0.001-0.665-0.299-0.665-0.667 0 0 0 0 0 0v0zM19.261 10.183c-0.379-0.111-0.814-0.174-1.264-0.174-2.577 0-4.667 2.089-4.667 4.667 0 0.193 0.012 0.382 0.034 0.569l-0.002-0.022c0.003 0.025 0.005 0.053 0.005 0.082 0 0.368-0.298 0.667-0.667 0.667-0.342 0-0.623-0.257-0.662-0.588l-0-0.003c-0.027-0.213-0.042-0.459-0.042-0.708 0-3.312 2.685-5.997 5.997-5.997s5.997 2.685 5.997 5.997c0 3.312-2.685 5.997-5.997 5.997-0.858 0-1.673-0.18-2.411-0.504l0.038 0.015c-0.227-0.109-0.382-0.338-0.382-0.603 0-0.368 0.298-0.667 0.667-0.667 0.087 0 0.17 0.017 0.246 0.047l-0.005-0.002c0.543 0.239 1.176 0.379 1.842 0.379 2.577 0 4.667-2.089 4.667-4.667 0-0.781-0.192-1.517-0.531-2.164l0.012 0.026c-0.597-1.136-1.616-1.983-2.843-2.338l-0.033-0.008z"></path>
<path fill="#f6b83d" style="fill: var(--color3, #f6b83d)" d="M21.856 11.477c-0.121-0.121-0.195-0.287-0.195-0.471s0.075-0.351 0.195-0.471l4.997-4.997c0.121-0.126 0.291-0.204 0.48-0.204 0.368 0 0.667 0.298 0.667 0.667 0 0.188-0.078 0.358-0.203 0.479l-4.999 4.998c-0.121 0.12-0.287 0.195-0.471 0.195s-0.35-0.074-0.471-0.195l0 0z"></path>
<path fill="#f6b83d" style="fill: var(--color3, #f6b83d)" d="M27.273 10.007c-0.364-0.005-0.657-0.302-0.657-0.667 0-0.002 0-0.005 0-0.007v0l0.033-2.648-2.649 0.032c-0.003 0-0.006 0-0.009 0-0.368 0-0.667-0.298-0.667-0.667 0-0.365 0.293-0.661 0.657-0.667h0l4.019-0.051-0.051 4.016c-0.005 0.364-0.302 0.657-0.667 0.657-0.003 0-0.006-0-0.009-0h0z"></path>
</symbol>
<symbol id="icon-edit" viewBox="0 0 32 32">
<path fill="none" stroke="#f6b83d" style="stroke: var(--color3, #f6b83d)" stroke-linejoin="round" stroke-linecap="round" stroke-miterlimit="4" stroke-width="2.6667" d="M22.667 4c0.682-0.682 1.625-1.105 2.667-1.105 2.083 0 3.771 1.688 3.771 3.771 0 1.041-0.422 1.984-1.105 2.667l-18 18-7.333 2 2-7.333z"></path>
</symbol>
<symbol id="icon-eye-off" viewBox="0 0 32 32">
<path fill="none" stroke="#f6b83d" style="stroke: var(--color3, #f6b83d)" stroke-linejoin="round" stroke-linecap="round" stroke-miterlimit="4" stroke-width="2.9091" d="M23.921 23.92c-2.175 1.671-4.923 2.696-7.908 2.746l-0.012 0c-9.332 0-14.666-10.666-14.666-10.666 1.712-3.152 3.976-5.791 6.688-7.877l0.058-0.043M13.201 5.654c0.835-0.203 1.793-0.32 2.778-0.32 0.008 0 0.015 0 0.023 0h-0.001c9.334 0 14.668 10.666 14.668 10.666-0.872 1.615-1.827 3.008-2.91 4.29l0.030-0.037M18.829 18.828c-0.732 0.785-1.772 1.275-2.927 1.275-1.67 0-3.101-1.024-3.699-2.479l-0.010-0.027c-0.184-0.443-0.291-0.958-0.291-1.497 0-1.154 0.489-2.194 1.27-2.924l0.002-0.002M1.335 1.334l29.334 29.332"></path>
</symbol>
<symbol id="icon-eye" viewBox="0 0 32 32">
<path fill="none" stroke="#f6b83d" style="stroke: var(--color3, #f6b83d)" stroke-linejoin="round" stroke-linecap="round" stroke-miterlimit="4" stroke-width="2.9091" d="M1.332 16s5.334-10.666 14.666-10.666 14.668 10.666 14.668 10.666-5.334 10.666-14.668 10.666-14.666-10.666-14.666-10.666"></path>
<path fill="none" stroke="#f6b83d" style="stroke: var(--color3, #f6b83d)" stroke-linejoin="round" stroke-linecap="round" stroke-miterlimit="4" stroke-width="2.9091" d="M16 20c2.209 0 4-1.791 4-4s-1.791-4-4-4v0c-2.209 0-4 1.791-4 4s1.791 4 4 4v0"></path>
</symbol>
<symbol id="icon-female" viewBox="0 0 32 32">
<path fill="none" stroke="#f43f5e" style="stroke: var(--color4, #f43f5e)" stroke-linejoin="round" stroke-linecap="round" stroke-miterlimit="4" stroke-width="2" d="M16 17.333c3.682 0 6.667-2.985 6.667-6.667s-2.985-6.667-6.667-6.667v0c-3.682 0-6.667 2.985-6.667 6.667s2.985 6.667 6.667 6.667v0M16 17.333v10.667M12 24h8"></path>
</symbol>
<symbol id="icon-heart" viewBox="0 0 32 32">
<path fill="none" stroke="#f6b83d" style="stroke: var(--color3, #f6b83d)" stroke-linejoin="round" stroke-linecap="round" stroke-miterlimit="4" stroke-width="2.6667" d="M27.787 6.148c-1.327-1.327-3.161-2.148-5.186-2.148s-3.859 0.821-5.186 2.148v0l-1.415 1.413-1.413-1.415c-1.328-1.327-3.161-2.148-5.187-2.148-4.052 0-7.336 3.285-7.336 7.336 0 2.026 0.821 3.861 2.15 5.188l11.787 11.785 11.787-11.787c1.327-1.328 2.148-3.161 2.148-5.187s-0.821-3.859-2.148-5.187l0 0"></path>
</symbol>
<symbol id="icon-heart-white" viewBox="0 0 32 32">
<path fill="none" stroke="#fff" style="stroke: var(--color2, #fff)" stroke-linejoin="round" stroke-linecap="round" stroke-miterlimit="4" stroke-width="2.6667" d="M27.785 6.148c-1.327-1.328-3.161-2.15-5.187-2.15s-3.86 0.822-5.187 2.15l-1.413 1.413-1.413-1.413c-1.329-1.34-3.171-2.169-5.207-2.169-4.051 0-7.335 3.284-7.335 7.335 0 2.036 0.829 3.878 2.168 5.207l11.787 11.787 11.787-11.787c1.328-1.327 2.15-3.161 2.15-5.187s-0.822-3.86-2.15-5.187l-0-0"></path>
</symbol>
<symbol id="icon-logo-desktop" viewBox="0 0 105 32">
<path fill="#262626" style="fill: var(--color5, #262626)" d="M9.226 25.42q-2.212 0-3.71-1.050t-2.254-2.856q-0.756-1.82-0.756-4.074 0-2.282 0.756-4.088t2.212-2.842q1.47-1.050 3.626-1.050 2.142 0 3.71 1.050 1.582 1.036 2.45 2.842 0.868 1.792 0.868 4.088 0 2.268-0.854 4.074-0.855 1.806-2.408 2.856-1.554 1.050-3.64 1.050zM1.932 31.72v-21.84h2.982v10.612h0.42v11.228zM8.708 22.396q1.315 0 2.17-0.658t1.26-1.778q0.42-1.134 0.42-2.52 0-1.372-0.42-2.492-0.42-1.134-1.302-1.792-0.882-0.672-2.24-0.672-1.289 0-2.1 0.63-0.812 0.616-1.204 1.736-0.378 1.105-0.378 2.59 0 1.47 0.378 2.59 0.391 1.12 1.218 1.75 0.84 0.616 2.198 0.616zM24.968 25.42q-2.296 0-4.032-0.994c-1.148-0.661-2.071-1.598-2.698-2.722l-0.018-0.036q-0.966-1.764-0.966-4.060 0-2.478 0.952-4.298 0.953-1.834 2.646-2.842t3.92-1.008q2.352 0 3.99 1.106 1.652 1.092 2.45 3.094t0.602 4.718h-3.346v-1.232q-0.015-2.464-0.868-3.598-0.854-1.134-2.688-1.134-2.072 0-3.080 1.288-1.008 1.274-1.008 3.738 0 2.296 1.008 3.556t2.94 1.26q1.246 0 2.142-0.546 0.91-0.56 1.4-1.61l3.332 1.008q-0.869 2.044-2.688 3.178-1.806 1.134-3.99 1.134zM19.76 18.378v-2.548h10.402v2.548zM42.68 25q-1.499 0.28-2.94 0.238-1.428-0.028-2.562-0.518c-0.743-0.326-1.338-0.876-1.713-1.563l-0.009-0.019c-0.321-0.578-0.52-1.264-0.546-1.994l-0-0.008c-0.018-0.651-0.028-1.417-0.028-2.185 0-0.044 0-0.088 0-0.132v0.007-13.146h3.36v12.95q0 0.91 0.014 1.596 0.027 0.685 0.294 1.12 0.504 0.84 1.61 0.938 1.105 0.098 2.52-0.112zM32.138 12.526v-2.646h10.542v2.646zM45.090 25v-20.58h3.374v20.58z"></path>
<path fill="#f6b83d" style="fill: var(--color3, #f6b83d)" d="M62.494 10.435c-1.84-2.172-4.907-2.757-7.212-0.768s-2.629 5.314-0.82 7.666c1.16 1.507 4.129 4.3 6.114 6.114 0.66 0.603 0.989 0.904 1.384 1.025 0.34 0.104 0.727 0.104 1.067 0 0.395-0.12 0.725-0.422 1.384-1.025 1.985-1.814 4.954-4.607 6.113-6.114 1.81-2.352 1.525-5.698-0.82-7.666-2.343-1.968-5.371-1.404-7.21 0.768z"></path>
<path fill="#262626" style="fill: var(--color5, #262626)" d="M80.048 25l-5.488-15.12h3.374l3.808 10.962 3.794-10.962h3.388l-5.488 15.12zM96.644 25.42q-2.297 0-4.032-0.994c-1.148-0.661-2.071-1.598-2.698-2.722l-0.018-0.036q-0.966-1.764-0.966-4.060 0-2.478 0.952-4.298 0.951-1.834 2.646-2.842t3.92-1.008q2.352 0 3.99 1.106 1.652 1.092 2.45 3.094 0.797 2.002 0.602 4.718h-3.346v-1.232q-0.015-2.464-0.868-3.598-0.855-1.134-2.688-1.134-2.073 0-3.080 1.288-1.008 1.274-1.008 3.738 0 2.296 1.008 3.556t2.94 1.26q1.245 0 2.142-0.546 0.91-0.56 1.4-1.61l3.332 1.008q-0.868 2.044-2.688 3.178-1.806 1.134-3.99 1.134zM91.436 18.378v-2.548h10.402v2.548z"></path>
</symbol>
<symbol id="icon-logo-mob" viewBox="0 0 106 32">
<path fill="#262626" style="fill: var(--color5, #262626)" d="M9.169 25.461q-2.198 0-3.687-1.043t-2.24-2.838q-0.751-1.809-0.751-4.049 0-2.268 0.751-4.063t2.198-2.824q1.461-1.043 3.603-1.043 2.129 0 3.687 1.043 1.572 1.030 2.435 2.824 0.863 1.781 0.863 4.063 0 2.254-0.849 4.049t-2.393 2.838-3.617 1.043zM1.92 31.722v-21.704h2.963v10.546h0.417v11.158zM8.654 22.456q1.308 0 2.157-0.654t1.252-1.767q0.417-1.127 0.417-2.504 0-1.363-0.417-2.477-0.417-1.127-1.294-1.781-0.877-0.668-2.226-0.668-1.28 0-2.087 0.626-0.807 0.612-1.197 1.725-0.376 1.099-0.376 2.574 0 1.461 0.376 2.574 0.39 1.113 1.21 1.739 0.835 0.612 2.184 0.612zM24.813 25.461q-2.282 0-4.007-0.988c-1.142-0.656-2.059-1.587-2.681-2.705l-0.018-0.036q-0.96-1.753-0.96-4.035 0-2.463 0.946-4.271 0.947-1.823 2.63-2.824 1.683-1.002 3.896-1.002 2.337 0 3.965 1.099 1.642 1.085 2.435 3.075t0.598 4.689h-3.325v-1.224q-0.014-2.449-0.863-3.576-0.847-1.127-2.671-1.127-2.059 0-3.061 1.28-1.002 1.266-1.002 3.715 0 2.282 1.002 3.534t2.922 1.252q1.24 0 2.129-0.543 0.904-0.557 1.391-1.6l3.311 1.002q-0.863 2.031-2.671 3.158-1.795 1.127-3.965 1.127zM19.637 18.463v-2.532h10.337v2.532zM42.414 25.043c-0.775 0.153-1.666 0.241-2.577 0.241-0.121 0-0.242-0.002-0.362-0.005l0.018 0q-1.419-0.028-2.546-0.515-1.127-0.501-1.711-1.572c-0.32-0.575-0.518-1.256-0.542-1.982l-0-0.007c-0.018-0.648-0.028-1.411-0.028-2.176 0-0.042 0-0.084 0-0.126v0.007-13.064h3.339v12.87q0 0.904 0.014 1.586 0.029 0.682 0.292 1.113 0.501 0.835 1.6 0.932t2.504-0.111zM31.937 12.647v-2.63h10.477v2.63zM44.813 25.043v-20.452h3.353v20.452z"></path>
<path fill="#f6b83d" style="fill: var(--color3, #f6b83d)" d="M63.299 9.763c-1.892-2.233-5.046-2.834-7.416-0.789s-2.705 5.464-0.843 7.883c1.192 1.549 4.245 4.422 6.286 6.287 0.678 0.619 1.017 0.929 1.423 1.053 0.349 0.107 0.749 0.107 1.098 0 0.406-0.124 0.746-0.434 1.423-1.053 2.041-1.866 5.094-4.739 6.286-6.289 1.862-2.418 1.568-5.857-0.842-7.882-2.411-2.024-5.523-1.444-7.416 0.789z"></path>
<path fill="#262626" style="fill: var(--color5, #262626)" d="M81.141 25.043l-5.454-15.026h3.353l3.784 10.894 3.77-10.894h3.367l-5.454 15.026zM97.633 25.461q-2.282 0-4.007-0.988c-1.142-0.656-2.059-1.587-2.681-2.705l-0.018-0.036q-0.96-1.753-0.96-4.035 0-2.463 0.946-4.271 0.946-1.823 2.63-2.824t3.896-1.002q2.337 0 3.965 1.099 1.642 1.085 2.435 3.075t0.598 4.689h-3.325v-1.224q-0.014-2.449-0.863-3.576t-2.671-1.127q-2.059 0-3.061 1.28-1.002 1.266-1.002 3.715 0 2.282 1.002 3.534t2.922 1.252q1.238 0 2.129-0.543 0.904-0.557 1.391-1.6l3.311 1.002q-0.863 2.031-2.671 3.158-1.795 1.127-3.965 1.127zM92.458 18.463v-2.532h10.337v2.532z"></path>
</symbol>
<symbol id="icon-logo-home" viewBox="0 0 106 32">
<path fill="#fff" style="fill: var(--color1, #fff)" d="M9.38 25.42q-2.254 0-3.766-1.050t-2.282-2.856q-0.756-1.806-0.756-4.074t0.756-4.074 2.226-2.856 3.626-1.050q2.17 0 3.78 1.036t2.492 2.842q0.896 1.792 0.896 4.102 0 2.268-0.882 4.074-0.868 1.806-2.436 2.856t-3.654 1.050zM1.932 31.72v-21.84h3.36v10.36h0.476v11.48zM8.764 22.032q1.232 0 2.016-0.616 0.784-0.615 1.162-1.652 0.378-1.050 0.378-2.324 0-1.26-0.392-2.296-0.392-1.050-1.218-1.666-0.812-0.63-2.086-0.63-1.19 0-1.932 0.574-0.728 0.575-1.064 1.61t-0.336 2.408q0 1.372 0.336 2.408t1.092 1.61q0.77 0.574 2.044 0.574zM25.341 25.42q-2.325 0-4.102-0.994c-1.163-0.664-2.102-1.599-2.753-2.723l-0.019-0.035q-0.994-1.764-0.994-4.032 0-2.479 0.98-4.312t2.702-2.842q1.721-1.022 3.962-1.022 2.38 0 4.046 1.12 1.665 1.12 2.464 3.15 0.797 2.030 0.56 4.774h-3.767v-1.4q0-2.31-0.742-3.318-0.729-1.022-2.394-1.022-1.947 0-2.87 1.19-0.91 1.176-0.91 3.486 0 2.114 0.91 3.276 0.924 1.148 2.702 1.148 1.12 0 1.918-0.49t1.218-1.414l3.808 1.092q-0.855 2.072-2.702 3.22c-1.124 0.72-2.496 1.148-3.968 1.148-0.018 0-0.035-0-0.053-0h0.003zM20.328 18.504v-2.828h10.024v2.828zM43.299 25q-1.566 0.294-3.080 0.252-1.497-0.028-2.687-0.518c-0.772-0.326-1.391-0.887-1.783-1.591l-0.009-0.019q-0.56-1.035-0.588-2.1c-0.018-0.688-0.028-1.498-0.028-2.31 0-0.044 0-0.089 0-0.133v0.007-12.908h3.808v12.684q0 0.882 0.014 1.596 0.029 0.7 0.294 1.12 0.504 0.798 1.61 0.868t2.45-0.112zM32.549 12.82v-2.94h10.751v2.94zM45.829 25v-20.58h3.808v20.58z"></path>
<path fill="#fff" style="fill: var(--color1, #fff)" d="M63.494 10.435c-1.84-2.172-4.907-2.757-7.212-0.768s-2.629 5.314-0.82 7.666c1.16 1.507 4.129 4.3 6.114 6.114 0.66 0.603 0.989 0.904 1.384 1.025 0.34 0.104 0.727 0.104 1.067 0 0.395-0.12 0.725-0.422 1.384-1.025 1.985-1.814 4.954-4.607 6.113-6.114 1.81-2.352 1.525-5.698-0.82-7.666-2.343-1.968-5.371-1.404-7.21 0.768z"></path>
<path fill="#fff" style="fill: var(--color1, #fff)" d="M81.048 25l-5.488-15.12h3.374l3.808 10.962 3.794-10.962h3.388l-5.488 15.12zM97.644 25.42q-2.297 0-4.032-0.994c-1.148-0.661-2.071-1.598-2.698-2.722l-0.018-0.036q-0.966-1.764-0.966-4.060 0-2.478 0.952-4.298 0.951-1.834 2.646-2.842t3.92-1.008q2.352 0 3.99 1.106 1.652 1.092 2.45 3.094 0.797 2.002 0.602 4.718h-3.346v-1.232q-0.015-2.464-0.868-3.598-0.855-1.134-2.688-1.134-2.073 0-3.080 1.288-1.008 1.274-1.008 3.738 0 2.296 1.008 3.556t2.94 1.26q1.245 0 2.142-0.546 0.91-0.56 1.4-1.61l3.332 1.008q-0.868 2.044-2.688 3.178-1.806 1.134-3.99 1.134zM92.436 18.378v-2.548h10.402v2.548z"></path>
</symbol>
<symbol id="icon-male" viewBox="0 0 19 32">
<path fill="none" stroke="#54adff" style="stroke: var(--color6, #54adff)" stroke-linejoin="round" stroke-linecap="round" stroke-miterlimit="4" stroke-width="2.4" d="M9.2 14c-4.418 0-8 3.582-8 8s3.582 8 8 8v0c4.418 0 8-3.582 8-8s-3.582-8-8-8v0M9.2 14v-12.8M9.2 1.2l6.4 6.4M9.2 1.2l-6.4 6.4"></path>
</symbol>
<symbol id="icon-search" viewBox="0 0 32 32">
<path stroke-linejoin="round" stroke-linecap="round" stroke-miterlimit="4" stroke-width="3.5556" d="M14.667 25.333c5.891 0 10.667-4.776 10.667-10.667s-4.776-10.667-10.667-10.667v0c-5.891 0-10.667 4.776-10.667 10.667s4.776 10.667 10.667 10.667v0M28 28l-5.799-5.799"></path>
</symbol>
<symbol id="icon-star" viewBox="0 0 32 32">
<path fill="#ffc531" style="fill: var(--color7, #ffc531); stroke: var(--color7, #ffc531)" stroke="#ffc531" stroke-linejoin="miter" stroke-linecap="butt" stroke-miterlimit="4" stroke-width="2.4" d="M19.6 9.394c0.318 0.604 0.898 1.024 1.57 1.14l7.6 1.314-5.376 5.534c-0.385 0.396-0.622 0.937-0.622 1.533 0 0.11 0.008 0.219 0.024 0.325l-0.001-0.012 1.1 7.636-6.924-3.404-0.234-0.1c-0.219-0.080-0.472-0.127-0.736-0.127s-0.517 0.046-0.751 0.132l0.015-0.005-0.234 0.1-6.924 3.404 1.1-7.636c0.014-0.094 0.022-0.202 0.022-0.313 0-0.596-0.237-1.138-0.623-1.534l0.001 0-5.378-5.534 7.602-1.312c0.685-0.122 1.252-0.547 1.564-1.128l0.006-0.012 3.6-6.826z"></path>
</symbol>
<symbol id="icon-trash" viewBox="0 0 32 32">
<path fill="none" stroke="#f6b83d" style="stroke: var(--color3, #f6b83d)" stroke-linejoin="round" stroke-linecap="round" stroke-miterlimit="4" stroke-width="2.6667" d="M4 8h24M25.333 8v18.667c0 1.473-1.194 2.667-2.667 2.667v0h-13.333c-1.473 0-2.667-1.194-2.667-2.667v0-18.667M10.667 8v-2.667c0-1.473 1.194-2.667 2.667-2.667v0h5.333c1.473 0 2.667 1.194 2.667 2.667v0 2.667M13.333 14.667v8M18.667 14.667v8"></path>
</symbol>
<symbol id="icon-user" viewBox="0 0 32 32">
<path fill="#f6b83d" style="fill: var(--color3, #f6b83d); stroke: var(--color3, #f6b83d)" stroke="#f6b83d" stroke-linejoin="round" stroke-linecap="round" stroke-miterlimit="4" stroke-width="2.6667" d="M16 20c-4.227 0-7.987 2.040-10.379 5.208-0.515 0.681-0.773 1.023-0.764 1.483 0.007 0.356 0.229 0.805 0.509 1.025 0.363 0.284 0.865 0.284 1.869 0.284h17.528c1.004 0 1.507 0 1.868-0.284 0.28-0.22 0.504-0.669 0.511-1.025 0.008-0.46-0.249-0.8-0.764-1.483-2.393-3.167-6.152-5.208-10.379-5.208M16 16c3.314 0 6-2.686 6-6s-2.686-6-6-6v0c-3.314 0-6 2.686-6 6s2.686 6 6 6v0"></path>
</symbol>
<symbol id="icon-burger-btn" viewBox="0 0 32 32">
<path stroke-linejoin="round" stroke-linecap="round" stroke-miterlimit="4" stroke-width="3" d="M4 16h24M4 8h24M4 24h24"></path>
</symbol>
<symbol id="icon-burger-btn-home" viewBox="0 0 32 32">
<path fill="none" stroke="#fff" style="stroke: var(--color1, #fff)" stroke-linejoin="round" stroke-linecap="round" stroke-miterlimit="4" stroke-width="3" d="M4 16h24M4 8h24M4 24h24"></path>
</symbol>

<symbol id="icon-single-chevron-right" viewBox="0 0 32 32">
<path d="M17.867 16.947c0.244-0.242 0.394-0.577 0.394-0.947s-0.151-0.705-0.394-0.947l-0-0-6.12-6.107c-0.243-0.242-0.394-0.577-0.394-0.947 0-0.737 0.597-1.334 1.334-1.334 0.367 0 0.699 0.148 0.94 0.388l6.12 6.12c0.723 0.724 1.17 1.723 1.17 2.827s-0.447 2.103-1.17 2.827l-6.12 6.12c-0.241 0.239-0.573 0.387-0.94 0.387-0.737 0-1.334-0.597-1.334-1.334 0-0.37 0.151-0.705 0.394-0.947l0-0z"></path>
</symbol>
<symbol id="icon-single-chevron-left" viewBox="0 0 32 32">
<path d="M14.134 16.947c-0.244-0.242-0.395-0.577-0.395-0.947s0.151-0.706 0.395-0.947l0-0 6.12-6.106c0.244-0.242 0.394-0.577 0.394-0.947 0-0.737-0.597-1.334-1.334-1.334-0.367 0-0.699 0.148-0.94 0.387l-6.12 6.12c-0.723 0.724-1.17 1.723-1.17 2.827s0.447 2.103 1.17 2.827l6.12 6.12c0.241 0.239 0.573 0.387 0.94 0.387 0.737 0 1.334-0.597 1.334-1.334 0-0.37-0.151-0.705-0.394-0.947l-0-0z"></path>
</symbol>
<symbol id="icon-double-chevron-left" viewBox="0 0 32 32">
<path d="M14.134 16.947c-0.244-0.242-0.395-0.577-0.395-0.947s0.151-0.706 0.395-0.947l0-0 6.12-6.106c0.244-0.242 0.394-0.577 0.394-0.947 0-0.737-0.597-1.334-1.334-1.334-0.367 0-0.699 0.148-0.94 0.387l-6.12 6.12c-0.723 0.724-1.17 1.723-1.17 2.827s0.447 2.103 1.17 2.827l6.12 6.12c0.241 0.239 0.573 0.387 0.94 0.387 0.737 0 1.334-0.597 1.334-1.334 0-0.37-0.151-0.705-0.394-0.947l-0-0z"></path>
</symbol>
<symbol id="icon-double-chevron-right" viewBox="0 0 32 32">
<path d="M17.867 16.947c0.244-0.242 0.394-0.577 0.394-0.947s-0.151-0.705-0.394-0.947l-0-0-6.12-6.107c-0.243-0.242-0.394-0.577-0.394-0.947 0-0.737 0.597-1.334 1.334-1.334 0.367 0 0.699 0.148 0.94 0.388l6.12 6.12c0.723 0.724 1.17 1.723 1.17 2.827s-0.447 2.103-1.17 2.827l-6.12 6.12c-0.241 0.239-0.573 0.387-0.94 0.387-0.737 0-1.334-0.597-1.334-1.334 0-0.37 0.151-0.705 0.394-0.947l0-0z"></path>
</symbol>
<symbol id="icon-cat-footprint" viewBox="0 0 32 32">
<path fill="#f6b83d" style="fill: var(--color1, #f6b83d)" d="M12.5 5c-1.070 0-2.002 0.608-2.594 1.437s-0.906 1.902-0.906 3.063c0 1.16 0.314 2.232 0.906 3.063s1.525 1.437 2.594 1.437c1.070 0 2.002-0.608 2.594-1.438s0.906-1.901 0.906-3.062-0.314-2.233-0.906-3.064-1.524-1.437-2.594-1.437zM16 9.499c0 1.16 0.314 2.233 0.906 3.064s1.525 1.437 2.594 1.437c1.070 0 2.002-0.608 2.594-1.438s0.905-1.901 0.905-3.062-0.313-2.233-0.905-3.064c-0.593-0.83-1.525-1.437-2.594-1.437s-2.002 0.608-2.594 1.438c-0.593 0.83-0.906 1.902-0.906 3.063zM12.5 7.001c0.312 0 0.656 0.155 0.969 0.593 0.311 0.438 0.531 1.133 0.531 1.907s-0.22 1.47-0.53 1.906c-0.314 0.438-0.659 0.594-0.969 0.594-0.312 0-0.657-0.156-0.97-0.594-0.311-0.437-0.53-1.133-0.53-1.906s0.219-1.47 0.53-1.906c0.313-0.439 0.658-0.595 0.969-0.595zM19.5 7c0.312 0 0.656 0.155 0.969 0.593 0.311 0.438 0.531 1.133 0.531 1.907s-0.22 1.47-0.531 1.906c-0.313 0.438-0.658 0.594-0.969 0.594s-0.656-0.156-0.969-0.594c-0.311-0.437-0.531-1.133-0.531-1.906s0.22-1.47 0.53-1.906c0.314-0.439 0.659-0.595 0.969-0.595zM7.5 12c-1.070 0-2.002 0.608-2.594 1.438s-0.906 1.901-0.906 3.062 0.314 2.233 0.906 3.064 1.524 1.436 2.594 1.436 2.002-0.608 2.594-1.437c0.592-0.83 0.906-1.902 0.906-3.063s-0.314-2.232-0.906-3.063c-0.593-0.83-1.525-1.437-2.594-1.437zM24.5 12c-1.070 0-2.002 0.608-2.594 1.438s-0.905 1.901-0.905 3.062 0.313 2.233 0.905 3.064c0.593 0.83 1.525 1.436 2.594 1.436s2.002-0.608 2.594-1.437c0.593-0.83 0.906-1.902 0.906-3.063s-0.314-2.232-0.906-3.063-1.524-1.437-2.594-1.437zM7.501 14c0.312 0 0.656 0.156 0.969 0.594 0.311 0.437 0.53 1.133 0.53 1.906s-0.219 1.47-0.53 1.906c-0.313 0.439-0.658 0.594-0.969 0.594s-0.656-0.155-0.969-0.593c-0.311-0.437-0.531-1.133-0.531-1.907s0.22-1.47 0.53-1.906c0.314-0.438 0.659-0.594 0.969-0.594zM24.5 14c0.312 0 0.656 0.156 0.969 0.594 0.311 0.437 0.531 1.133 0.531 1.906s-0.22 1.47-0.53 1.906c-0.314 0.439-0.659 0.594-0.969 0.594-0.312 0-0.657-0.155-0.97-0.593-0.311-0.438-0.531-1.133-0.531-1.907s0.22-1.47 0.531-1.906c0.313-0.438 0.658-0.594 0.969-0.594zM16 16c-1.333 0-2.263 0.866-2.72 1.625-0.454 0.76-0.734 1.392-1 1.656-0.153 0.156-1.118 0.52-2.124 1.032-0.504 0.257-1.010 0.6-1.437 1.125-0.449 0.555-0.72 1.268-0.72 2.046 0 0.006 0 0.012 0 0.018v-0.001c0.010 1.929 1.571 3.491 3.499 3.5h0.001c0.866 0 1.769-0.28 2.654-0.531 0.889-0.255 1.847-0.472 1.847-0.472s0.957 0.216 1.845 0.471c0.885 0.249 1.789 0.53 2.655 0.53 1.93-0.010 3.491-1.572 3.5-3.5v-0.001c0-0.793-0.293-1.519-0.72-2.029-0.425-0.513-0.937-0.83-1.436-1.096-1-0.53-1.983-0.95-2.125-1.094-0.24-0.237-0.509-0.89-0.969-1.654-0.459-0.767-1.409-1.627-2.749-1.627zM16 18c0.66 0 0.733 0.16 1.030 0.656 0.301 0.495 0.524 1.336 1.25 2.063 0.825 0.82 1.867 1 2.626 1.404 0.38 0.201 0.67 0.417 0.844 0.625s0.25 0.395 0.25 0.75c0 0.84-0.66 1.499-1.5 1.499-0.29 0-1.224-0.219-2.094-0.47-0.87-0.247-1.59-0.53-2.406-0.53s-1.536 0.282-2.406 0.53c-0.871 0.25-1.804 0.471-2.094 0.471-0.004 0-0.009 0-0.013 0-0.821 0-1.487-0.666-1.487-1.487 0-0.005 0-0.009 0-0.014v0.001c0-0.404 0.085-0.61 0.25-0.814s0.472-0.405 0.843-0.593c0.744-0.38 1.781-0.53 2.626-1.375 0.732-0.737 0.952-1.606 1.25-2.095 0.292-0.489 0.361-0.625 1.030-0.625z"></path>
</symbol>
<symbol id="icon-upload-cloud" viewBox="0 0 32 32">
<path fill="none" stroke="#f6b83d" style="stroke: var(--color1, #f6b83d)" stroke-linejoin="round" stroke-linecap="round" stroke-miterlimit="4" stroke-width="2" d="M21.334 21.334l-5.332-5.334-5.334 5.334M16 16v12"></path>
<path fill="none" stroke="#f6b83d" style="stroke: var(--color1, #f6b83d)" stroke-linejoin="round" stroke-linecap="round" stroke-miterlimit="4" stroke-width="2" d="M27.188 24.52c2.087-1.153 3.478-3.341 3.478-5.854 0-3.681-2.983-6.665-6.663-6.666h-1.68c-1.224-4.637-5.381-8-10.323-8-1.833 0-3.559 0.463-5.066 1.278l0.056-0.028c-3.395 1.83-5.663 5.36-5.663 9.42 0 2.715 1.014 5.193 2.684 7.075l-0.010-0.011"></path>
<path fill="none" stroke="#f6b83d" style="stroke: var(--color1, #f6b83d)" stroke-linejoin="round" stroke-linecap="round" stroke-miterlimit="4" stroke-width="2" d="M21.334 21.334l-5.332-5.334-5.334 5.334"></path>
</symbol>
<symbol id="icon-user-white" viewBox="0 0 32 32">
<path fill="#fff" style="fill: var(--color2, #fff); stroke: var(--color2, #fff)" stroke="#fff" stroke-linejoin="round" stroke-linecap="round" stroke-miterlimit="4" stroke-width="3.5556" d="M16 20c-4.226 0-7.986 2.041-10.379 5.209-0.516 0.681-0.772 1.022-0.764 1.483 0.007 0.356 0.231 0.804 0.51 1.024 0.363 0.284 0.866 0.284 1.87 0.284h17.527c1.004 0 1.508 0 1.868-0.284 0.29-0.253 0.481-0.614 0.51-1.019l0-0.005c0.009-0.462-0.249-0.802-0.764-1.483-2.393-3.168-6.151-5.209-10.379-5.209M16 16c3.314 0 6-2.686 6-6s-2.686-6-6-6v0c-3.314 0-6 2.686-6 6s2.686 6 6 6v0"></path>
</symbol>
</defs>
</svg>
